# xmcd CD database file
#
# Track frame offsets:
#	225
#	12561
#	27893
#	46319
#	56261
#	68609
#	79852
#	91563
#	108371
#	124223
#	136522
#	149259
#	161223
#	176014
#
# Disc length: 2484 seconds
#
# Revision: 2
# Processed by: cddbd v1.4b41PL1 Copyright (c) Steve Scherf et al.
# Submitted via: Feurio! 1.52 - http://www.feurio.com
#
DISCID=b009b10e
DTITLE=Various Artist - Das Schlageralphabet - F #B009B10ECC545425
DYEAR=1900
DGENRE=
TTITLE0=Roy Black - Fremde Erde
TTITLE1=Peggy March - Fly Fly Away
TTITLE2=Bernhard Brink - Frei und abgebrannt
TTITLE3=Dunja Reiter - Feuer in der Nacht
TTITLE4=Peter Beil - Fremde in der Nacht
TTITLE5=Paola - Für uns beide
TTITLE6=Peter Leander - Freunde fürs Leben
TTITLE7=Billy Vaughn and Orchestra - Fernando
TTITLE8=Manuela - Für immer
TTITLE9=Heller Duo - Fahren zwei nach Hawaii
TTITLE10=Harry Gold  - Für Dich
TTITLE11=Vera Wälle - Füreinander da sein
TTITLE12=Peter Orloff - Folg' deinem Stern
TTITLE13=Mary Roos - Fortsetzung folgt
EXTD=
EXTT0=
EXTT1=
EXTT2=
EXTT3=
EXTT4=
EXTT5=
EXTT6=
EXTT7=
EXTT8=
EXTT9=
EXTT10=
EXTT11=
EXTT12=
EXTT13=
PLAYORDER=
